{"title":"Freddie Mercury - The Solo Collection Part V (The Video Collecti","uid":4560006,"size":1464621791,"categoryP":"video","categoryS":"music_videos","magnet":"?xt=urn:btih:8ca1d1bf289fa960338bb986e267d5a888344eee&amp;dn=Freddie+Mercury+-+The+Solo+Collection+Part+V+%28The+Video+Collecti&amp;tr=udp%3A%2F%2Ftracker.openbittorrent.com%3A80&amp;tr=udp%3A%2F%2Fopen.demonii.com%3A1337&amp;tr=udp%3A%2F%2Ftracker.coppersurfer.tk%3A6969&amp;tr=udp%3A%2F%2Fexodus.desync.com%3A6969","seeders":1,"leechers":0,"uploader":"repopo","files":-1,"time":1228645798,"description":"*******************************************************************************\nFreddie Mercury - The Solo Collection Part V (The Video Collection)\n*******************************************************************************\n\n\nTracklist:\n\n1. Barcelona (Live)\n2. The Great Pretender (Single Version)\n3. I Was Born To Love You\n4. Time (2000 Remix)\n5. How Can I Go On (Live)\n6. Made In Heaven\n7. Living On My Own (Original)\n8. The Golden Boy (Live)\n9. The Great Pretender (Extended Version)\n10. Barcelona (Single Version)\n11. In My Defence (2000 Re-Edit)\n12. Guide Me Home (Titles; Piano version performed by Thierry Lang)\n\n-------------------------------------------------------------------------------\n\nThere are both a stereo and a 5.1 surround audio mix for each track. Surround\nSound mixes produced by David Richards and Peter Cobbin except 'I Was Born To\nLove You' and 'Made In Heaven', produced by Mack, 'Time' and 'In My Defence',\nproduced by Dave Clark, and 'Living On My Own', produced by Paul Hicks.\n\nThis is intended to be played on a PC or a HTPC. If it works on your standalone\nplayer, good for you. You can always convert it to a regular DVD using tools as\nConvertXtoDVD.\n\nCheck you have installed the right codecs, as listed in this .nfo file, before\ntrying to play it. VLC will play this file without having to install any codec.\n\nThere are two audio tracks in this file. If you don't have an updated AC3\naudio codec installed, you might hear strange echoes or unbalanced sound. Check\nyou have them and update before posting about it. VLC will play this video\nflawlessly and allow you to select/change between those audio tracks.\n\nIf you don't like the codec(s), container, resolution, file size, languages or\nany technical aspect on this rip, keep it to yourself and go and do your own.\n\nSerious feedback on quality will always be welcome.\n\n\n-------------------------------------------------------------------------------\n\nGeneral\nFormat : AVI\nFormat/Info : Audio Video Interleave\nFile size : 1.36 GiB\nDuration : 53mn 53s\nOverall bit rate : 3 623 Kbps\n\nVideo\nFormat : AVC\nFormat/Info : Advanced Video Codec\nFormat profile : &lt;a class=&quot;__cf_email__&quot; href=&quot;/cdn-cgi/l/email-protection&quot; data-cfemail=&quot;276f4e404f676b120916&quot;&gt;[email&amp;#160;protected]&lt;/a&gt;&lt;script cf-hash='f9e31' type=&quot;text/javascript&quot;&gt;\n/* &lt;![CDATA[ */!function(){try{var t=&quot;currentScript&quot;in document?document.currentScript:function(){for(var t=document.getElementsByTagName(&quot;script&quot;),e=t.length;e--;)if(t[e].getAttribute(&quot;cf-hash&quot;))return t[e]}();if(t&amp;&amp;t.previousSibling){var e,r,n,i,c=t.previousSibling,a=c.getAttribute(&quot;data-cfemail&quot;);if(a){for(e=&quot;&quot;,r=parseInt(a.substr(0,2),16),n=2;a.length-n;n+=2)i=parseInt(a.substr(n,2),16)^r,e+=String.fromCharCode(i);e=document.createTextNode(e),c.parentNode.replaceChild(e,c)}}}catch(u){}}();/* ]]&gt; */&lt;/script&gt;\nFormat settings, CABAC : Yes\nFormat settings, ReFrames : 3 frames\nCodec ID : H264\nDuration : 53mn 53s\nBit rate : 2 905 Kbps\nWidth : 704 pixels\nHeight : 512 pixels\nDisplay aspect ratio : 1.375\nFrame rate : 25.000 fps\nResolution : 24 bits\nColorimetry : 4:2:0\nScan type : Progressive\nBits/(Pixel*Frame) : 0.322\nStream size : 1.09 GiB (80%)\nWriting library : x264 core 58 svn-736bm\n\nAudio #1\nFormat : AC-3\nFormat/Info : Audio Coding 3\nCodec ID : 2000\nDuration : 53mn 53s\nBit rate mode : Constant\nBit rate : 448 Kbps\nChannel(s) : 6 channels\nChannel positions : Front: L C R, Rear: L R, LFE\nSampling rate : 48.0 KHz\nStream size : 173 MiB (12%)\nAlignment : Split accross interleaves\nInterleave, duration : 40 ms (1.00 video frame)\nInterleave, preload duration : 500 ms\n\nAudio #2\nFormat : AC-3\nFormat/Info : Audio Coding 3\nCodec ID : 2000\nDuration : 53mn 53s\nBit rate mode : Constant\nBit rate : 256 Kbps\nChannel(s) : 2 channels\nChannel positions : L R\nSampling rate : 48.0 KHz\nStream size : 98.7 MiB (7%)\nAlignment : Split accross interleaves\nInterleave, duration : 40 ms (1.00 video frame)\nInterleave, preload duration : 500 ms\n\n-------------------------------------------------------------------------------\n\nThis is a part of the 10cd+2DVD box The Freddie Mercury Solo Collection\n\nPart I: The Albums\nCD01 Mr. Bad Guy\nCD02 Barcelona\n\nPart II: The Singles\nCD04 The Singles 1973-1985\nCD05 The Singles 1986-1993\n\nPart III: Rarities\nCD06 Rarities I (Mr. Bad Guy Sessions)\nCD07 Rarities II (Barcelona Sessions)\nCD08 Rarities III (Other Sessions)\n\nPart IV: Remixes, Instrumentals and Interviews\nCD03 The Great Pretender\nCD09 Instrumentals\nCD10 David Wigg Interviews\n\nPart V: The Video Collection (H.264/AC3 DVDRip)\n\nPart VI: The Untold Story (H.264/AC3 DVDRip)\n\n-------------------------------------------------------------------------------","torrent":{"xt":"urn:btih:8ca1d1bf289fa960338bb986e267d5a888344eee","amp;dn":"Freddie+Mercury+-+The+Solo+Collection+Part+V+%28The+Video+Collecti","amp;tr":["udp%3A%2F%2Ftracker.openbittorrent.com%3A80","udp%3A%2F%2Fopen.demonii.com%3A1337","udp%3A%2F%2Ftracker.coppersurfer.tk%3A6969","udp%3A%2F%2Fexodus.desync.com%3A6969"],"infoHash":"8ca1d1bf289fa960338bb986e267d5a888344eee","infoHashBuffer":{"type":"Buffer","data":[140,161,209,191,40,159,169,96,51,139,185,134,226,103,213,168,136,52,78,238]},"announce":[],"urlList":[]}}